<?xml version="1.0" encoding="utf-8"?>
<!-- Generator: Adobe Illustrator 28.4.1, SVG Export Plug-In . SVG Version: 6.00 Build 0)  -->
<svg version="1.1" id="Layer_1" xmlns="http://www.w3.org/2000/svg" xmlns:xlink="http://www.w3.org/1999/xlink" x="0px" y="0px"
	 viewBox="0 0 100 100" style="enable-background:new 0 0 100 100;" xml:space="preserve">
<style type="text/css">
	.st0{fill:#524E5A;}
	.st1{fill:none;stroke:#D6E0E3;stroke-width:4.5977;stroke-linejoin:round;stroke-miterlimit:2.2989;}
	.st2{fill:#524E5A;}
</style>
<path class="st0" d="M50,2.7l1.9-1.9C51.4,0.3,50.7,0,50,0V2.7z M86.1,38.2h2.7c0-0.7-0.3-1.4-0.8-1.9L86.1,38.2z M73.2,94.6H26.8
	v5.4h46.5V94.6z M16.7,84.6V15.4h-5.4v69.1H16.7z M26.8,5.4H50V0H26.8V5.4z M88,36.2L51.9,0.8l-3.8,3.9l36.1,35.5L88,36.2z
	 M26.8,94.6c-5.6,0-10.1-4.5-10.1-10h-5.4c0,8.5,7,15.4,15.5,15.4V94.6z M73.2,100c8.6,0,15.5-6.9,15.5-15.4h-5.4
	c0,5.5-4.5,10-10.1,10V100z M62.8,35.5c-5.6,0-10.1-4.5-10.1-10h-5.4c0,8.5,7,15.4,15.5,15.4V35.5z M16.7,15.4c0-5.5,4.5-10,10.1-10
	V0c-8.6,0-15.5,6.9-15.5,15.4H16.7z M83.3,38.2v46.4h5.4V38.2H83.3z M52.7,25.5V2.7h-5.4v22.7H52.7z M62.8,40.9h23.2v-5.4H62.8V40.9
	z"/>
<path class="st1" d="M70.2,75.5v14.1H56.1L45.3,78.8c-1.1,0.2-2.2,0.3-3.3,0.3c-9.8,0-17.7-7.9-17.7-17.7c0-1.1,0.1-2.2,0.3-3.3
	l10.2,10.2h10.5H49v-3.6V54.2L38.7,44c1.1-0.2,2.2-0.3,3.3-0.3c9.8,0,17.7,7.9,17.7,17.7c0,1.1-0.1,2.2-0.3,3.3L70.2,75.5z"/>
<path class="st2" d="M86,38.3L50,2.6v22.9c0,7.1,5.7,12.8,12.8,12.8H86z"/>
</svg>
