<?xml version="1.0" encoding="utf-8"?>
<!-- Generator: Adobe Illustrator 28.4.1, SVG Export Plug-In . SVG Version: 6.00 Build 0)  -->
<svg version="1.1" id="Layer_1" xmlns="http://www.w3.org/2000/svg" xmlns:xlink="http://www.w3.org/1999/xlink" x="0px" y="0px"
	 viewBox="0 0 100 100" style="enable-background:new 0 0 100 100;" xml:space="preserve">
<style type="text/css">
	.st0{fill:#FF4D35;}
	.st1{fill-rule:evenodd;clip-rule:evenodd;fill:#FF4D35;}
</style>
<path class="st0" d="M50,2.7l1.9-1.9C51.4,0.3,50.7,0,50,0V2.7z M86.1,38.2h2.7c0-0.7-0.3-1.4-0.8-1.9L86.1,38.2z M73.2,94.6H26.8
	v5.4h46.5V94.6z M16.7,84.6V15.4h-5.4v69.1H16.7z M26.8,5.4H50V0H26.8V5.4z M88,36.2L51.9,0.8l-3.8,3.9l36.1,35.5L88,36.2z
	 M26.8,94.6c-5.6,0-10.1-4.5-10.1-10h-5.4c0,8.5,7,15.4,15.5,15.4V94.6z M73.2,100c8.6,0,15.5-6.9,15.5-15.4h-5.4
	c0,5.5-4.5,10-10.1,10V100z M62.8,35.5c-5.6,0-10.1-4.5-10.1-10h-5.4c0,8.5,7,15.4,15.5,15.4V35.5z M16.7,15.4c0-5.5,4.5-10,10.1-10
	V0c-8.6,0-15.5,6.9-15.5,15.4H16.7z M83.3,38.2v46.4h5.4V38.2H83.3z M52.7,25.5V2.7h-5.4v22.7H52.7z M62.8,40.9h23.2v-5.4H62.8V40.9
	z"/>
<path class="st0" d="M53,65c1.1,2.7-0.2,5.8-2.9,6.9l0.7,1.8c3.7-1.5,5.4-5.7,3.9-9.4L53,65z M50.2,71.9c-2.7,1.1-5.8-0.2-6.9-2.9
	l-1.8,0.7c1.5,3.7,5.7,5.4,9.4,3.9L50.2,71.9z M43.3,69c-1.1-2.7,0.2-5.8,2.9-6.9l-0.7-1.8c-3.7,1.5-5.4,5.7-3.9,9.4L43.3,69z
	 M46.1,62.1c2.7-1.1,5.8,0.2,6.9,2.9l1.8-0.7c-1.5-3.7-5.7-5.4-9.4-3.9L46.1,62.1z"/>
<path class="st1" d="M51.2,46.1c-1.3-2.6-4.9-2.6-6.2,0l-0.7,1.3c-0.9,1.7-3,2.4-4.7,1.5l-1.3-0.7c-2.5-1.3-5.5,0.8-5,3.7l0.2,1.4
	c0.3,1.9-1,3.7-2.9,4l-1.4,0.2c-2.8,0.4-4,3.9-1.9,5.9l1,1c1.4,1.4,1.4,3.6,0,5l-1,1c-2,2-0.9,5.5,1.9,5.9l1.4,0.2
	c1.9,0.3,3.2,2.1,2.9,4l-0.2,1.4c-0.5,2.8,2.5,5,5,3.7l1.3-0.7c1.7-0.9,3.8-0.2,4.7,1.5l0.7,1.3c1.3,2.6,4.9,2.6,6.2,0l0.7-1.3
	c0.9-1.7,3-2.4,4.7-1.5l1.3,0.7c2.5,1.3,5.5-0.8,5-3.7l-0.2-1.4c-0.3-1.9,1-3.7,2.9-4l1.4-0.2c2.8-0.4,4-3.9,1.9-5.9l-1-1
	c-1.4-1.4-1.4-3.6,0-5l1-1c2-2,0.9-5.5-1.9-5.9l-1.4-0.2c-1.9-0.3-3.2-2.1-2.9-4l0.2-1.4c0.5-2.8-2.5-5-5-3.7l-1.3,0.7
	c-1.7,0.9-3.8,0.2-4.7-1.5L51.2,46.1z M48.1,83C56.9,83,64,75.8,64,67.1c0-8.8-7.1-15.9-15.9-15.9c-8.8,0-15.9,7.1-15.9,15.9
	C32.3,75.8,39.4,83,48.1,83z"/>
</svg>
