<?xml version="1.0" encoding="utf-8"?>
<!-- Generator: Adobe Illustrator 28.4.1, SVG Export Plug-In . SVG Version: 6.00 Build 0)  -->
<svg version="1.1" id="Layer_1" xmlns="http://www.w3.org/2000/svg" xmlns:xlink="http://www.w3.org/1999/xlink" x="0px" y="0px"
	 viewBox="0 0 136 136" style="enable-background:new 0 0 136 136;" xml:space="preserve">
<style type="text/css">
	.st0{fill:#2EB4FF;}
</style>
<path class="st0" d="M68,0v8c33.1,0,60,26.9,60,60h8C136,30.4,105.6,0,68,0z M0,68h8C8,34.9,34.9,8,68,8V0C30.4,0,0,30.4,0,68z
	 M8,68H0c0,37.6,30.4,68,68,68v-8C34.9,128,8,101.1,8,68z M128,68c0,33.1-26.9,60-60,60v8c37.6,0,68-30.4,68-68H128z"/>
<path class="st0" d="M76.1,27.1l-0.5,55.2c-0.1,5.4-3.5,9.7-7.6,9.7s-7.5-4.3-7.6-9.7l-0.5-55.2c-0.1-5.9,3.5-10.7,8.1-10.7
	C72.6,16.4,76.2,21.1,76.1,27.1z"/>
<path class="st0" d="M78.1,111c0,2.6-0.9,5-2.7,6.9l0,0c-2,2.2-4.7,3-7.5,3s-5.6-0.8-7.6-3.1l0,0l0,0c-1.7-1.9-2.5-4.3-2.5-6.8
	c0-2.6,0.8-4.9,2.5-6.9l0,0l0,0c2-2.2,4.8-3.1,7.6-3.1c2.8,0,5.5,0.9,7.5,3l0,0C77.2,106,78.1,108.4,78.1,111z"/>
</svg>
